<svg preserveAspectRatio="none" overflow="visible" style="display: block;" width="6.52635" height="6.52635" viewBox="0 0 6.52635 6.52635" fill="none" xmlns="http://www.w3.org/2000/svg">
<path id="Vector" d="M6.25442 0H1.90352C1.83282 0 1.76233 0.0274056 1.71338 0.0817918C1.65899 0.130739 1.63159 0.201229 1.63159 0.271931V1.63159H0.271931C0.201229 1.63159 0.130739 1.65899 0.0817918 1.71338C0.0274056 1.76233 0 1.83282 0 1.90352V6.25442C0 6.32512 0.0274056 6.39561 0.0817918 6.44456C0.130739 6.49894 0.201229 6.52635 0.271931 6.52635H4.62283C4.69353 6.52635 4.76402 6.49894 4.81297 6.44456C4.86736 6.39561 4.89476 6.32512 4.89476 6.25442V4.89476H6.25442C6.32512 4.89476 6.39561 4.86736 6.44456 4.81297C6.49894 4.76402 6.52635 4.69353 6.52635 4.62283V0.271931C6.52635 0.201229 6.49894 0.130739 6.44456 0.0817918C6.39561 0.0274056 6.32512 0 6.25442 0ZM4.3509 5.98249H0.543863V2.17545H4.3509V5.98249ZM5.98249 4.3509H4.89476V1.90352C4.89476 1.83282 4.86736 1.76233 4.81297 1.71338C4.76402 1.65899 4.69353 1.63159 4.62283 1.63159H2.17545V0.543863H5.98249V4.3509Z" fill="black"/>
</svg>
